<mxfile host="app.diagrams.net" agent="Mozilla/5.0 (Windows NT 10.0; Win64; x64) AppleWebKit/537.36 (KHTML, like Gecko) Chrome/134.0.0.0 Safari/537.36 Edg/134.0.0.0" version="26.1.0">
  <diagram name="Page-1" id="qndO_Mjxu-_fTsWk3JKw">
    <mxGraphModel dx="976" dy="495" grid="1" gridSize="10" guides="1" tooltips="1" connect="1" arrows="1" fold="1" page="1" pageScale="1" pageWidth="1100" pageHeight="850" math="0" shadow="0">
      <root>
        <mxCell id="0" />
        <mxCell id="1" parent="0" />
        <mxCell id="BCJE9C6mnE361nlagNKe-139" value="" style="curved=1;endArrow=classic;html=1;rounded=0;exitX=0;exitY=0.5;exitDx=0;exitDy=0;fillColor=#fff2cc;strokeColor=#d6b656;strokeWidth=3;entryX=0.25;entryY=1;entryDx=0;entryDy=0;" parent="1" source="BCJE9C6mnE361nlagNKe-67" target="BCJE9C6mnE361nlagNKe-57" edge="1">
          <mxGeometry width="50" height="50" relative="1" as="geometry">
            <mxPoint x="640" y="625" as="sourcePoint" />
            <mxPoint x="540" y="800" as="targetPoint" />
            <Array as="points">
              <mxPoint x="20" y="565" />
            </Array>
          </mxGeometry>
        </mxCell>
        <mxCell id="BCJE9C6mnE361nlagNKe-73" value="" style="group" parent="1" vertex="1" connectable="0">
          <mxGeometry x="90" y="485" width="170" height="80" as="geometry" />
        </mxCell>
        <mxCell id="BCJE9C6mnE361nlagNKe-67" value="DogID" style="rounded=0;whiteSpace=wrap;html=1;fontStyle=1" parent="BCJE9C6mnE361nlagNKe-73" vertex="1">
          <mxGeometry y="40" width="80" height="40" as="geometry" />
        </mxCell>
        <mxCell id="BCJE9C6mnE361nlagNKe-68" value="BreedName" style="rounded=0;whiteSpace=wrap;html=1;fontStyle=1" parent="BCJE9C6mnE361nlagNKe-73" vertex="1">
          <mxGeometry x="80" y="40" width="90" height="40" as="geometry" />
        </mxCell>
        <mxCell id="BCJE9C6mnE361nlagNKe-69" value="DOG_BREED" style="text;strokeColor=none;fillColor=none;html=1;fontSize=18;fontStyle=1;verticalAlign=middle;align=left;" parent="BCJE9C6mnE361nlagNKe-73" vertex="1">
          <mxGeometry width="100" height="40" as="geometry" />
        </mxCell>
        <mxCell id="BCJE9C6mnE361nlagNKe-112" value="" style="endArrow=none;html=1;rounded=0;strokeWidth=1;" parent="BCJE9C6mnE361nlagNKe-73" edge="1">
          <mxGeometry width="50" height="50" relative="1" as="geometry">
            <mxPoint x="10" y="70" as="sourcePoint" />
            <mxPoint x="160" y="70" as="targetPoint" />
          </mxGeometry>
        </mxCell>
        <mxCell id="BCJE9C6mnE361nlagNKe-77" value="" style="group" parent="1" vertex="1" connectable="0">
          <mxGeometry x="330" y="485" width="100" height="80" as="geometry" />
        </mxCell>
        <mxCell id="BCJE9C6mnE361nlagNKe-70" value="Name" style="rounded=0;whiteSpace=wrap;html=1;fontStyle=1" parent="BCJE9C6mnE361nlagNKe-77" vertex="1">
          <mxGeometry y="40" width="80" height="40" as="geometry" />
        </mxCell>
        <mxCell id="BCJE9C6mnE361nlagNKe-72" value="BREED" style="text;strokeColor=none;fillColor=none;html=1;fontSize=18;fontStyle=1;verticalAlign=middle;align=left;" parent="BCJE9C6mnE361nlagNKe-77" vertex="1">
          <mxGeometry width="100" height="40" as="geometry" />
        </mxCell>
        <mxCell id="BCJE9C6mnE361nlagNKe-113" value="" style="endArrow=none;html=1;rounded=0;strokeWidth=1;" parent="BCJE9C6mnE361nlagNKe-77" edge="1">
          <mxGeometry width="50" height="50" relative="1" as="geometry">
            <mxPoint x="10" y="70" as="sourcePoint" />
            <mxPoint x="70" y="70" as="targetPoint" />
          </mxGeometry>
        </mxCell>
        <mxCell id="BCJE9C6mnE361nlagNKe-78" value="" style="group" parent="1" vertex="1" connectable="0">
          <mxGeometry x="790" y="403" width="100" height="80" as="geometry" />
        </mxCell>
        <mxCell id="BCJE9C6mnE361nlagNKe-79" value="Name" style="rounded=0;whiteSpace=wrap;html=1;fontStyle=1" parent="BCJE9C6mnE361nlagNKe-78" vertex="1">
          <mxGeometry y="40" width="80" height="40" as="geometry" />
        </mxCell>
        <mxCell id="BCJE9C6mnE361nlagNKe-80" value="MANUFACTURER" style="text;strokeColor=none;fillColor=none;html=1;fontSize=18;fontStyle=1;verticalAlign=middle;align=left;" parent="BCJE9C6mnE361nlagNKe-78" vertex="1">
          <mxGeometry width="100" height="40" as="geometry" />
        </mxCell>
        <mxCell id="BCJE9C6mnE361nlagNKe-114" value="" style="endArrow=none;html=1;rounded=0;strokeWidth=1;" parent="BCJE9C6mnE361nlagNKe-78" edge="1">
          <mxGeometry width="50" height="50" relative="1" as="geometry">
            <mxPoint x="10" y="70" as="sourcePoint" />
            <mxPoint x="70" y="70" as="targetPoint" />
          </mxGeometry>
        </mxCell>
        <mxCell id="BCJE9C6mnE361nlagNKe-81" value="" style="group" parent="1" vertex="1" connectable="0">
          <mxGeometry x="330" y="403" width="160" height="80" as="geometry" />
        </mxCell>
        <mxCell id="BCJE9C6mnE361nlagNKe-82" value="DogID" style="rounded=0;whiteSpace=wrap;html=1;fontStyle=1" parent="BCJE9C6mnE361nlagNKe-81" vertex="1">
          <mxGeometry y="40" width="80" height="40" as="geometry" />
        </mxCell>
        <mxCell id="BCJE9C6mnE361nlagNKe-83" value="MicrochipID" style="rounded=0;whiteSpace=wrap;html=1;fontStyle=1" parent="BCJE9C6mnE361nlagNKe-81" vertex="1">
          <mxGeometry x="80" y="40" width="80" height="40" as="geometry" />
        </mxCell>
        <mxCell id="BCJE9C6mnE361nlagNKe-84" value="DOG_MICROCHIP" style="text;strokeColor=none;fillColor=none;html=1;fontSize=18;fontStyle=1;verticalAlign=middle;align=left;" parent="BCJE9C6mnE361nlagNKe-81" vertex="1">
          <mxGeometry width="100" height="40" as="geometry" />
        </mxCell>
        <mxCell id="BCJE9C6mnE361nlagNKe-123" value="" style="endArrow=none;html=1;rounded=0;strokeWidth=1;" parent="BCJE9C6mnE361nlagNKe-81" edge="1">
          <mxGeometry width="50" height="50" relative="1" as="geometry">
            <mxPoint x="5" y="70" as="sourcePoint" />
            <mxPoint x="70" y="70" as="targetPoint" />
          </mxGeometry>
        </mxCell>
        <mxCell id="BCJE9C6mnE361nlagNKe-149" value="" style="endArrow=none;html=1;rounded=0;strokeWidth=1;" parent="BCJE9C6mnE361nlagNKe-81" edge="1">
          <mxGeometry width="50" height="50" relative="1" as="geometry">
            <mxPoint x="87.5" y="70" as="sourcePoint" />
            <mxPoint x="152.5" y="70" as="targetPoint" />
          </mxGeometry>
        </mxCell>
        <mxCell id="BCJE9C6mnE361nlagNKe-85" value="" style="group" parent="1" vertex="1" connectable="0">
          <mxGeometry x="540" y="403" width="190" height="80" as="geometry" />
        </mxCell>
        <mxCell id="BCJE9C6mnE361nlagNKe-86" value="MicrochipID" style="rounded=0;whiteSpace=wrap;html=1;fontStyle=1" parent="BCJE9C6mnE361nlagNKe-85" vertex="1">
          <mxGeometry y="40" width="100" height="40" as="geometry" />
        </mxCell>
        <mxCell id="BCJE9C6mnE361nlagNKe-87" value="Manufacturer" style="rounded=0;whiteSpace=wrap;html=1;fontStyle=1" parent="BCJE9C6mnE361nlagNKe-85" vertex="1">
          <mxGeometry x="100" y="40" width="100" height="40" as="geometry" />
        </mxCell>
        <mxCell id="BCJE9C6mnE361nlagNKe-88" value="MICROCHIP" style="text;strokeColor=none;fillColor=none;html=1;fontSize=18;fontStyle=1;verticalAlign=middle;align=left;" parent="BCJE9C6mnE361nlagNKe-85" vertex="1">
          <mxGeometry width="100" height="40" as="geometry" />
        </mxCell>
        <mxCell id="BCJE9C6mnE361nlagNKe-117" value="" style="endArrow=none;html=1;rounded=0;strokeWidth=1;" parent="BCJE9C6mnE361nlagNKe-85" edge="1">
          <mxGeometry width="50" height="50" relative="1" as="geometry">
            <mxPoint x="10" y="70" as="sourcePoint" />
            <mxPoint x="90" y="70" as="targetPoint" />
          </mxGeometry>
        </mxCell>
        <mxCell id="BCJE9C6mnE361nlagNKe-89" value="" style="group" parent="1" vertex="1" connectable="0">
          <mxGeometry x="750" y="115" width="100" height="80" as="geometry" />
        </mxCell>
        <mxCell id="BCJE9C6mnE361nlagNKe-90" value="Name" style="rounded=0;whiteSpace=wrap;html=1;fontStyle=1" parent="BCJE9C6mnE361nlagNKe-89" vertex="1">
          <mxGeometry y="40" width="80" height="40" as="geometry" />
        </mxCell>
        <mxCell id="BCJE9C6mnE361nlagNKe-91" value="CATEGORY" style="text;strokeColor=none;fillColor=none;html=1;fontSize=18;fontStyle=1;verticalAlign=middle;align=left;" parent="BCJE9C6mnE361nlagNKe-89" vertex="1">
          <mxGeometry width="100" height="40" as="geometry" />
        </mxCell>
        <mxCell id="BCJE9C6mnE361nlagNKe-115" value="" style="endArrow=none;html=1;rounded=0;strokeWidth=1;" parent="BCJE9C6mnE361nlagNKe-89" edge="1">
          <mxGeometry width="50" height="50" relative="1" as="geometry">
            <mxPoint x="10" y="70" as="sourcePoint" />
            <mxPoint x="70" y="70" as="targetPoint" />
          </mxGeometry>
        </mxCell>
        <mxCell id="BCJE9C6mnE361nlagNKe-118" value="" style="group" parent="1" vertex="1" connectable="0">
          <mxGeometry x="90" y="15" width="320" height="80" as="geometry" />
        </mxCell>
        <mxCell id="BCJE9C6mnE361nlagNKe-27" value="Email" style="rounded=0;whiteSpace=wrap;html=1;fontStyle=1" parent="BCJE9C6mnE361nlagNKe-118" vertex="1">
          <mxGeometry y="40" width="80" height="40" as="geometry" />
        </mxCell>
        <mxCell id="BCJE9C6mnE361nlagNKe-28" value="FirstName" style="rounded=0;whiteSpace=wrap;html=1;fontStyle=1" parent="BCJE9C6mnE361nlagNKe-118" vertex="1">
          <mxGeometry x="80" y="40" width="80" height="40" as="geometry" />
        </mxCell>
        <mxCell id="BCJE9C6mnE361nlagNKe-29" value="LastName" style="rounded=0;whiteSpace=wrap;html=1;fontStyle=1" parent="BCJE9C6mnE361nlagNKe-118" vertex="1">
          <mxGeometry x="160" y="40" width="80" height="40" as="geometry" />
        </mxCell>
        <mxCell id="BCJE9C6mnE361nlagNKe-30" value="Phone" style="rounded=0;whiteSpace=wrap;html=1;fontStyle=1" parent="BCJE9C6mnE361nlagNKe-118" vertex="1">
          <mxGeometry x="240" y="40" width="80" height="40" as="geometry" />
        </mxCell>
        <mxCell id="BCJE9C6mnE361nlagNKe-31" value="USER" style="text;strokeColor=none;fillColor=none;html=1;fontSize=18;fontStyle=1;verticalAlign=middle;align=left;" parent="BCJE9C6mnE361nlagNKe-118" vertex="1">
          <mxGeometry width="100" height="40" as="geometry" />
        </mxCell>
        <mxCell id="BCJE9C6mnE361nlagNKe-105" value="" style="endArrow=none;html=1;rounded=0;strokeWidth=1;" parent="BCJE9C6mnE361nlagNKe-118" edge="1">
          <mxGeometry width="50" height="50" relative="1" as="geometry">
            <mxPoint x="10" y="70" as="sourcePoint" />
            <mxPoint x="70" y="70" as="targetPoint" />
          </mxGeometry>
        </mxCell>
        <mxCell id="BCJE9C6mnE361nlagNKe-119" value="" style="group" parent="1" vertex="1" connectable="0">
          <mxGeometry x="90" y="105" width="160" height="80" as="geometry" />
        </mxCell>
        <mxCell id="BCJE9C6mnE361nlagNKe-35" value="Email" style="rounded=0;whiteSpace=wrap;html=1;fontStyle=1" parent="BCJE9C6mnE361nlagNKe-119" vertex="1">
          <mxGeometry y="40" width="80" height="40" as="geometry" />
        </mxCell>
        <mxCell id="BCJE9C6mnE361nlagNKe-39" value="DIRECTOR" style="text;strokeColor=none;fillColor=none;html=1;fontSize=18;fontStyle=1;verticalAlign=middle;align=left;" parent="BCJE9C6mnE361nlagNKe-119" vertex="1">
          <mxGeometry width="100" height="40" as="geometry" />
        </mxCell>
        <mxCell id="BCJE9C6mnE361nlagNKe-106" value="" style="endArrow=none;html=1;rounded=0;strokeWidth=1;" parent="BCJE9C6mnE361nlagNKe-119" edge="1">
          <mxGeometry width="50" height="50" relative="1" as="geometry">
            <mxPoint x="10" y="70" as="sourcePoint" />
            <mxPoint x="70" y="70" as="targetPoint" />
          </mxGeometry>
        </mxCell>
        <mxCell id="BCJE9C6mnE361nlagNKe-120" value="" style="group" parent="1" vertex="1" connectable="0">
          <mxGeometry x="90" y="205" width="240" height="80" as="geometry" />
        </mxCell>
        <mxCell id="BCJE9C6mnE361nlagNKe-41" value="Email" style="rounded=0;whiteSpace=wrap;html=1;fontStyle=1" parent="BCJE9C6mnE361nlagNKe-120" vertex="1">
          <mxGeometry y="40" width="80" height="40" as="geometry" />
        </mxCell>
        <mxCell id="BCJE9C6mnE361nlagNKe-43" value="BirthDate" style="rounded=0;whiteSpace=wrap;html=1;fontStyle=1" parent="BCJE9C6mnE361nlagNKe-120" vertex="1">
          <mxGeometry x="80" y="40" width="80" height="40" as="geometry" />
        </mxCell>
        <mxCell id="BCJE9C6mnE361nlagNKe-45" value="VOLUNTEER" style="text;strokeColor=none;fillColor=none;html=1;fontSize=18;fontStyle=1;verticalAlign=middle;align=left;" parent="BCJE9C6mnE361nlagNKe-120" vertex="1">
          <mxGeometry width="100" height="40" as="geometry" />
        </mxCell>
        <mxCell id="BCJE9C6mnE361nlagNKe-107" value="" style="endArrow=none;html=1;rounded=0;strokeWidth=1;" parent="BCJE9C6mnE361nlagNKe-120" edge="1">
          <mxGeometry width="50" height="50" relative="1" as="geometry">
            <mxPoint x="10" y="70" as="sourcePoint" />
            <mxPoint x="70" y="70" as="targetPoint" />
          </mxGeometry>
        </mxCell>
        <mxCell id="BCJE9C6mnE361nlagNKe-121" value="" style="group" parent="1" vertex="1" connectable="0">
          <mxGeometry x="90" y="758" width="720" height="80" as="geometry" />
        </mxCell>
        <mxCell id="BCJE9C6mnE361nlagNKe-47" value="Email" style="rounded=0;whiteSpace=wrap;html=1;fontStyle=1;container=0;" parent="BCJE9C6mnE361nlagNKe-121" vertex="1">
          <mxGeometry y="40" width="80" height="40" as="geometry" />
        </mxCell>
        <mxCell id="BCJE9C6mnE361nlagNKe-48" value="LastName" style="rounded=0;whiteSpace=wrap;html=1;fontStyle=1;container=0;" parent="BCJE9C6mnE361nlagNKe-121" vertex="1">
          <mxGeometry x="160" y="40" width="80" height="40" as="geometry" />
        </mxCell>
        <mxCell id="BCJE9C6mnE361nlagNKe-51" value="ADOPTER" style="text;strokeColor=none;fillColor=none;html=1;fontSize=18;fontStyle=1;verticalAlign=middle;align=left;container=0;" parent="BCJE9C6mnE361nlagNKe-121" vertex="1">
          <mxGeometry width="100" height="40" as="geometry" />
        </mxCell>
        <mxCell id="BCJE9C6mnE361nlagNKe-108" value="" style="endArrow=none;html=1;rounded=0;strokeWidth=1;" parent="BCJE9C6mnE361nlagNKe-121" edge="1">
          <mxGeometry width="50" height="50" relative="1" as="geometry">
            <mxPoint x="10" y="70" as="sourcePoint" />
            <mxPoint x="70" y="70" as="targetPoint" />
          </mxGeometry>
        </mxCell>
        <mxCell id="XVee_mUp5hW_UbHp6SKK-5" value="FirstName" style="rounded=0;whiteSpace=wrap;html=1;fontStyle=1;container=0;" parent="BCJE9C6mnE361nlagNKe-121" vertex="1">
          <mxGeometry x="80" y="40" width="80" height="40" as="geometry" />
        </mxCell>
        <mxCell id="XVee_mUp5hW_UbHp6SKK-4" value="Phone" style="rounded=0;whiteSpace=wrap;html=1;fontStyle=1;container=0;" parent="BCJE9C6mnE361nlagNKe-121" vertex="1">
          <mxGeometry x="240" y="40" width="80" height="40" as="geometry" />
        </mxCell>
        <mxCell id="BCJE9C6mnE361nlagNKe-49" value="City" style="rounded=0;whiteSpace=wrap;html=1;fontStyle=1;container=0;" parent="BCJE9C6mnE361nlagNKe-121" vertex="1">
          <mxGeometry x="400" y="40" width="80" height="40" as="geometry" />
        </mxCell>
        <mxCell id="BCJE9C6mnE361nlagNKe-50" value="State" style="rounded=0;whiteSpace=wrap;html=1;fontStyle=1;container=0;" parent="BCJE9C6mnE361nlagNKe-121" vertex="1">
          <mxGeometry x="480" y="40" width="80" height="40" as="geometry" />
        </mxCell>
        <mxCell id="XVee_mUp5hW_UbHp6SKK-3" value="Street" style="rounded=0;whiteSpace=wrap;html=1;fontStyle=1;container=0;" parent="BCJE9C6mnE361nlagNKe-121" vertex="1">
          <mxGeometry x="320" y="40" width="80" height="40" as="geometry" />
        </mxCell>
        <mxCell id="BCJE9C6mnE361nlagNKe-147" value="Household" style="rounded=0;whiteSpace=wrap;html=1;fontStyle=1;container=0;" parent="BCJE9C6mnE361nlagNKe-121" vertex="1">
          <mxGeometry x="640" y="40" width="80" height="40" as="geometry" />
        </mxCell>
        <mxCell id="BCJE9C6mnE361nlagNKe-52" value="Zip" style="rounded=0;whiteSpace=wrap;html=1;fontStyle=1;container=0;" parent="BCJE9C6mnE361nlagNKe-121" vertex="1">
          <mxGeometry x="560" y="40" width="80" height="40" as="geometry" />
        </mxCell>
        <mxCell id="BCJE9C6mnE361nlagNKe-122" value="" style="group" parent="1" vertex="1" connectable="0">
          <mxGeometry x="90" y="305" width="900" height="80" as="geometry" />
        </mxCell>
        <mxCell id="BCJE9C6mnE361nlagNKe-61" value="Sex" style="rounded=0;whiteSpace=wrap;html=1;fontStyle=1;container=0;" parent="BCJE9C6mnE361nlagNKe-122" vertex="1">
          <mxGeometry x="400" y="43" width="80" height="40" as="geometry" />
        </mxCell>
        <mxCell id="BCJE9C6mnE361nlagNKe-62" value="Altered" style="rounded=0;whiteSpace=wrap;html=1;fontStyle=1;container=0;" parent="BCJE9C6mnE361nlagNKe-122" vertex="1">
          <mxGeometry x="480" y="43" width="80" height="40" as="geometry" />
        </mxCell>
        <mxCell id="BCJE9C6mnE361nlagNKe-63" value="SurrenderDate" style="rounded=0;whiteSpace=wrap;html=1;fontStyle=1;container=0;" parent="BCJE9C6mnE361nlagNKe-122" vertex="1">
          <mxGeometry x="560" y="43" width="100" height="40" as="geometry" />
        </mxCell>
        <mxCell id="BCJE9C6mnE361nlagNKe-64" value="SurrenderPhone" style="rounded=0;whiteSpace=wrap;html=1;fontStyle=1;container=0;" parent="BCJE9C6mnE361nlagNKe-122" vertex="1">
          <mxGeometry x="660" y="43" width="120" height="40" as="geometry" />
        </mxCell>
        <mxCell id="BCJE9C6mnE361nlagNKe-65" value="ByAnimalControl" style="rounded=0;whiteSpace=wrap;html=1;fontStyle=1;container=0;" parent="BCJE9C6mnE361nlagNKe-122" vertex="1">
          <mxGeometry x="780" y="43" width="120" height="40" as="geometry" />
        </mxCell>
        <mxCell id="BCJE9C6mnE361nlagNKe-55" value="Age" style="rounded=0;whiteSpace=wrap;html=1;fontStyle=1;container=0;" parent="BCJE9C6mnE361nlagNKe-122" vertex="1">
          <mxGeometry x="320" y="43" width="80" height="40" as="geometry" />
        </mxCell>
        <mxCell id="BCJE9C6mnE361nlagNKe-56" value="Email" style="rounded=0;whiteSpace=wrap;html=1;fontStyle=1;container=0;" parent="BCJE9C6mnE361nlagNKe-122" vertex="1">
          <mxGeometry y="43" width="80" height="40" as="geometry" />
        </mxCell>
        <mxCell id="BCJE9C6mnE361nlagNKe-57" value="DogID" style="rounded=0;whiteSpace=wrap;html=1;fontStyle=1;container=0;" parent="BCJE9C6mnE361nlagNKe-122" vertex="1">
          <mxGeometry x="80" y="43" width="80" height="40" as="geometry" />
        </mxCell>
        <mxCell id="BCJE9C6mnE361nlagNKe-58" value="Name" style="rounded=0;whiteSpace=wrap;html=1;fontStyle=1;container=0;" parent="BCJE9C6mnE361nlagNKe-122" vertex="1">
          <mxGeometry x="160" y="43" width="80" height="40" as="geometry" />
        </mxCell>
        <mxCell id="BCJE9C6mnE361nlagNKe-59" value="Description" style="rounded=0;whiteSpace=wrap;html=1;fontStyle=1;container=0;" parent="BCJE9C6mnE361nlagNKe-122" vertex="1">
          <mxGeometry x="240" y="43" width="80" height="40" as="geometry" />
        </mxCell>
        <mxCell id="BCJE9C6mnE361nlagNKe-60" value="DOG" style="text;strokeColor=none;fillColor=none;html=1;fontSize=18;fontStyle=1;verticalAlign=middle;align=left;container=0;" parent="BCJE9C6mnE361nlagNKe-122" vertex="1">
          <mxGeometry width="100" height="40" as="geometry" />
        </mxCell>
        <mxCell id="BCJE9C6mnE361nlagNKe-109" value="" style="endArrow=none;html=1;rounded=0;strokeWidth=1;" parent="BCJE9C6mnE361nlagNKe-122" edge="1">
          <mxGeometry width="50" height="50" relative="1" as="geometry">
            <mxPoint x="90" y="74" as="sourcePoint" />
            <mxPoint x="150" y="74" as="targetPoint" />
          </mxGeometry>
        </mxCell>
        <mxCell id="BCJE9C6mnE361nlagNKe-124" value="" style="curved=1;endArrow=classic;html=1;rounded=0;exitX=0;exitY=0.5;exitDx=0;exitDy=0;entryX=0;entryY=0.75;entryDx=0;entryDy=0;fillColor=#fff2cc;strokeColor=#d6b656;strokeWidth=3;" parent="1" source="BCJE9C6mnE361nlagNKe-35" target="BCJE9C6mnE361nlagNKe-27" edge="1">
          <mxGeometry width="50" height="50" relative="1" as="geometry">
            <mxPoint x="500" y="275" as="sourcePoint" />
            <mxPoint x="550" y="225" as="targetPoint" />
            <Array as="points">
              <mxPoint x="40" y="125" />
            </Array>
          </mxGeometry>
        </mxCell>
        <mxCell id="BCJE9C6mnE361nlagNKe-126" value="" style="curved=1;endArrow=classic;html=1;rounded=0;entryX=0;entryY=0.5;entryDx=0;entryDy=0;fillColor=#fff2cc;strokeColor=#d6b656;strokeWidth=3;exitX=0;exitY=0.5;exitDx=0;exitDy=0;" parent="1" source="BCJE9C6mnE361nlagNKe-41" target="BCJE9C6mnE361nlagNKe-27" edge="1">
          <mxGeometry width="50" height="50" relative="1" as="geometry">
            <mxPoint x="90" y="265" as="sourcePoint" />
            <mxPoint x="90" y="175" as="targetPoint" />
            <Array as="points">
              <mxPoint x="10" y="145" />
            </Array>
          </mxGeometry>
        </mxCell>
        <mxCell id="BCJE9C6mnE361nlagNKe-128" value="" style="curved=1;endArrow=classic;html=1;rounded=0;exitX=0;exitY=0.5;exitDx=0;exitDy=0;fillColor=#fff2cc;strokeColor=#d6b656;strokeWidth=3;" parent="1" source="BCJE9C6mnE361nlagNKe-56" edge="1">
          <mxGeometry width="50" height="50" relative="1" as="geometry">
            <mxPoint x="70" y="465" as="sourcePoint" />
            <mxPoint x="90" y="265" as="targetPoint" />
            <Array as="points">
              <mxPoint x="10" y="345" />
            </Array>
          </mxGeometry>
        </mxCell>
        <mxCell id="BCJE9C6mnE361nlagNKe-137" value="" style="group" parent="1" vertex="1" connectable="0">
          <mxGeometry x="430" y="205" width="400" height="80" as="geometry" />
        </mxCell>
        <mxCell id="BCJE9C6mnE361nlagNKe-134" value="Date" style="rounded=0;whiteSpace=wrap;html=1;fontStyle=1" parent="BCJE9C6mnE361nlagNKe-137" vertex="1">
          <mxGeometry x="160" y="40" width="80" height="40" as="geometry" />
        </mxCell>
        <mxCell id="BCJE9C6mnE361nlagNKe-135" value="Amount" style="rounded=0;whiteSpace=wrap;html=1;fontStyle=1" parent="BCJE9C6mnE361nlagNKe-137" vertex="1">
          <mxGeometry x="240" y="40" width="80" height="40" as="geometry" />
        </mxCell>
        <mxCell id="BCJE9C6mnE361nlagNKe-136" value="Category" style="rounded=0;whiteSpace=wrap;html=1;fontStyle=1" parent="BCJE9C6mnE361nlagNKe-137" vertex="1">
          <mxGeometry x="320" y="40" width="80" height="40" as="geometry" />
        </mxCell>
        <mxCell id="BCJE9C6mnE361nlagNKe-130" value="DogID" style="rounded=0;whiteSpace=wrap;html=1;fontStyle=1" parent="BCJE9C6mnE361nlagNKe-137" vertex="1">
          <mxGeometry y="40" width="80" height="40" as="geometry" />
        </mxCell>
        <mxCell id="BCJE9C6mnE361nlagNKe-131" value="Vendor" style="rounded=0;whiteSpace=wrap;html=1;fontStyle=1" parent="BCJE9C6mnE361nlagNKe-137" vertex="1">
          <mxGeometry x="80" y="40" width="80" height="40" as="geometry" />
        </mxCell>
        <mxCell id="BCJE9C6mnE361nlagNKe-132" value="EXPENSE" style="text;strokeColor=none;fillColor=none;html=1;fontSize=18;fontStyle=1;verticalAlign=middle;align=left;" parent="BCJE9C6mnE361nlagNKe-137" vertex="1">
          <mxGeometry width="100" height="40" as="geometry" />
        </mxCell>
        <mxCell id="BCJE9C6mnE361nlagNKe-133" value="" style="endArrow=none;html=1;rounded=0;strokeWidth=1;" parent="BCJE9C6mnE361nlagNKe-137" edge="1">
          <mxGeometry width="50" height="50" relative="1" as="geometry">
            <mxPoint x="5" y="70" as="sourcePoint" />
            <mxPoint x="230" y="70" as="targetPoint" />
          </mxGeometry>
        </mxCell>
        <mxCell id="BCJE9C6mnE361nlagNKe-141" value="" style="curved=1;endArrow=classic;html=1;rounded=0;exitX=0;exitY=0.5;exitDx=0;exitDy=0;fillColor=#fff2cc;strokeColor=#d6b656;strokeWidth=3;entryX=0.75;entryY=1;entryDx=0;entryDy=0;" parent="1" source="BCJE9C6mnE361nlagNKe-82" target="BCJE9C6mnE361nlagNKe-57" edge="1">
          <mxGeometry width="50" height="50" relative="1" as="geometry">
            <mxPoint x="280" y="523" as="sourcePoint" />
            <mxPoint x="380" y="598" as="targetPoint" />
            <Array as="points">
              <mxPoint x="270" y="443" />
            </Array>
          </mxGeometry>
        </mxCell>
        <mxCell id="BCJE9C6mnE361nlagNKe-142" value="" style="curved=1;endArrow=classic;html=1;rounded=0;exitX=1;exitY=0.5;exitDx=0;exitDy=0;fillColor=#fff2cc;strokeColor=#d6b656;strokeWidth=3;entryX=0;entryY=0.5;entryDx=0;entryDy=0;" parent="1" source="BCJE9C6mnE361nlagNKe-83" target="BCJE9C6mnE361nlagNKe-86" edge="1">
          <mxGeometry width="50" height="50" relative="1" as="geometry">
            <mxPoint x="880" y="658" as="sourcePoint" />
            <mxPoint x="880" y="463" as="targetPoint" />
          </mxGeometry>
        </mxCell>
        <mxCell id="BCJE9C6mnE361nlagNKe-143" value="" style="curved=1;endArrow=classic;html=1;rounded=0;exitX=1;exitY=0.5;exitDx=0;exitDy=0;fillColor=#fff2cc;strokeColor=#d6b656;strokeWidth=3;entryX=0;entryY=0.5;entryDx=0;entryDy=0;" parent="1" source="BCJE9C6mnE361nlagNKe-87" target="BCJE9C6mnE361nlagNKe-79" edge="1">
          <mxGeometry width="50" height="50" relative="1" as="geometry">
            <mxPoint x="740" y="463" as="sourcePoint" />
            <mxPoint x="790" y="463" as="targetPoint" />
          </mxGeometry>
        </mxCell>
        <mxCell id="BCJE9C6mnE361nlagNKe-145" value="" style="curved=1;endArrow=classic;html=1;rounded=0;exitX=0.5;exitY=0;exitDx=0;exitDy=0;fillColor=#fff2cc;strokeColor=#d6b656;strokeWidth=3;entryX=0.5;entryY=1;entryDx=0;entryDy=0;" parent="1" source="BCJE9C6mnE361nlagNKe-136" target="BCJE9C6mnE361nlagNKe-90" edge="1">
          <mxGeometry width="50" height="50" relative="1" as="geometry">
            <mxPoint x="699.5" y="390" as="sourcePoint" />
            <mxPoint x="699.5" y="195" as="targetPoint" />
          </mxGeometry>
        </mxCell>
        <mxCell id="BCJE9C6mnE361nlagNKe-146" value="" style="curved=1;endArrow=classic;html=1;rounded=0;exitX=1;exitY=0.5;exitDx=0;exitDy=0;fillColor=#fff2cc;strokeColor=#d6b656;strokeWidth=3;entryX=0;entryY=0.5;entryDx=0;entryDy=0;" parent="1" source="BCJE9C6mnE361nlagNKe-68" target="BCJE9C6mnE361nlagNKe-70" edge="1">
          <mxGeometry width="50" height="50" relative="1" as="geometry">
            <mxPoint x="1030" y="660" as="sourcePoint" />
            <mxPoint x="1030" y="465" as="targetPoint" />
          </mxGeometry>
        </mxCell>
        <mxCell id="XVee_mUp5hW_UbHp6SKK-2" value="Password" style="rounded=0;whiteSpace=wrap;html=1;fontStyle=1" parent="1" vertex="1">
          <mxGeometry x="410" y="55" width="80" height="40" as="geometry" />
        </mxCell>
        <mxCell id="XVee_mUp5hW_UbHp6SKK-14" value="DogID" style="rounded=0;whiteSpace=wrap;html=1;fontStyle=1;container=0;" parent="1" vertex="1">
          <mxGeometry x="490" y="605" width="80" height="40" as="geometry" />
        </mxCell>
        <mxCell id="XVee_mUp5hW_UbHp6SKK-8" value="Email" style="rounded=0;whiteSpace=wrap;html=1;fontStyle=1;container=0;" parent="1" vertex="1">
          <mxGeometry x="90" y="605" width="80" height="40" as="geometry" />
        </mxCell>
        <mxCell id="XVee_mUp5hW_UbHp6SKK-9" value="Date" style="rounded=0;whiteSpace=wrap;html=1;fontStyle=1;container=0;" parent="1" vertex="1">
          <mxGeometry x="170" y="605" width="80" height="40" as="geometry" />
        </mxCell>
        <mxCell id="XVee_mUp5hW_UbHp6SKK-10" value="DecisionDate" style="rounded=0;whiteSpace=wrap;html=1;fontStyle=1;container=0;" parent="1" vertex="1">
          <mxGeometry x="410" y="605" width="80" height="40" as="geometry" />
        </mxCell>
        <mxCell id="XVee_mUp5hW_UbHp6SKK-11" value="ADOPTION" style="text;strokeColor=none;fillColor=none;html=1;fontSize=18;fontStyle=1;verticalAlign=middle;align=left;container=0;" parent="1" vertex="1">
          <mxGeometry x="90" y="565" width="100" height="40" as="geometry" />
        </mxCell>
        <mxCell id="XVee_mUp5hW_UbHp6SKK-12" value="" style="endArrow=none;html=1;rounded=0;strokeWidth=1;" parent="1" edge="1">
          <mxGeometry width="50" height="50" relative="1" as="geometry">
            <mxPoint x="100" y="635" as="sourcePoint" />
            <mxPoint x="240" y="635" as="targetPoint" />
          </mxGeometry>
        </mxCell>
        <mxCell id="XVee_mUp5hW_UbHp6SKK-15" value="Fee" style="rounded=0;whiteSpace=wrap;html=1;fontStyle=1;container=0;" parent="1" vertex="1">
          <mxGeometry x="250" y="605" width="80" height="40" as="geometry" />
        </mxCell>
        <mxCell id="BCJE9C6mnE361nlagNKe-94" value="Email" style="rounded=0;whiteSpace=wrap;html=1;fontStyle=1;container=0;" parent="1" vertex="1">
          <mxGeometry x="617" y="605" width="80" height="40" as="geometry" />
        </mxCell>
        <mxCell id="BCJE9C6mnE361nlagNKe-95" value="Date" style="rounded=0;whiteSpace=wrap;html=1;fontStyle=1;container=0;" parent="1" vertex="1">
          <mxGeometry x="697" y="605" width="80" height="40" as="geometry" />
        </mxCell>
        <mxCell id="BCJE9C6mnE361nlagNKe-98" value="REJECTION" style="text;strokeColor=none;fillColor=none;html=1;fontSize=18;fontStyle=1;verticalAlign=middle;align=left;container=0;" parent="1" vertex="1">
          <mxGeometry x="617" y="565" width="100" height="40" as="geometry" />
        </mxCell>
        <mxCell id="BCJE9C6mnE361nlagNKe-116" value="" style="endArrow=none;html=1;rounded=0;strokeWidth=1;" parent="1" edge="1">
          <mxGeometry width="50" height="50" relative="1" as="geometry">
            <mxPoint x="627" y="635" as="sourcePoint" />
            <mxPoint x="767" y="635" as="targetPoint" />
          </mxGeometry>
        </mxCell>
        <mxCell id="XVee_mUp5hW_UbHp6SKK-17" value="" style="curved=1;endArrow=classic;html=1;rounded=0;fillColor=#fff2cc;strokeColor=#d6b656;strokeWidth=3;entryX=0.75;entryY=0;entryDx=0;entryDy=0;" parent="1" target="BCJE9C6mnE361nlagNKe-57" edge="1">
          <mxGeometry width="50" height="50" relative="1" as="geometry">
            <mxPoint x="470" y="285" as="sourcePoint" />
            <mxPoint x="210" y="345" as="targetPoint" />
            <Array as="points">
              <mxPoint x="420" y="335" />
              <mxPoint x="310" y="335" />
            </Array>
          </mxGeometry>
        </mxCell>
        <mxCell id="XVee_mUp5hW_UbHp6SKK-19" value="" style="curved=1;endArrow=classic;html=1;rounded=0;exitX=0.75;exitY=0;exitDx=0;exitDy=0;fillColor=#fff2cc;strokeColor=#d6b656;strokeWidth=3;entryX=0.75;entryY=1;entryDx=0;entryDy=0;" parent="1" source="XVee_mUp5hW_UbHp6SKK-14" edge="1">
          <mxGeometry width="50" height="50" relative="1" as="geometry">
            <mxPoint x="310" y="460" as="sourcePoint" />
            <mxPoint x="210" y="385" as="targetPoint" />
            <Array as="points">
              <mxPoint x="540" y="494" />
              <mxPoint x="350" y="494" />
              <mxPoint x="270" y="464" />
            </Array>
          </mxGeometry>
        </mxCell>
        <mxCell id="wKNCZyk0TjYHzA_RKTog-8" value="Email" style="rounded=0;whiteSpace=wrap;html=1;fontStyle=1;container=0;" parent="1" vertex="1">
          <mxGeometry x="95" y="705" width="80" height="40" as="geometry" />
        </mxCell>
        <mxCell id="wKNCZyk0TjYHzA_RKTog-9" value="Date" style="rounded=0;whiteSpace=wrap;html=1;fontStyle=1;container=0;" parent="1" vertex="1">
          <mxGeometry x="175" y="705" width="80" height="40" as="geometry" />
        </mxCell>
        <mxCell id="wKNCZyk0TjYHzA_RKTog-10" value="APPLICATION" style="text;strokeColor=none;fillColor=none;html=1;fontSize=18;fontStyle=1;verticalAlign=middle;align=left;container=0;" parent="1" vertex="1">
          <mxGeometry x="95" y="665" width="100" height="40" as="geometry" />
        </mxCell>
        <mxCell id="wKNCZyk0TjYHzA_RKTog-11" value="" style="endArrow=none;html=1;rounded=0;strokeWidth=1;" parent="1" edge="1">
          <mxGeometry width="50" height="50" relative="1" as="geometry">
            <mxPoint x="105" y="735" as="sourcePoint" />
            <mxPoint x="245" y="735" as="targetPoint" />
          </mxGeometry>
        </mxCell>
        <mxCell id="wKNCZyk0TjYHzA_RKTog-12" value="" style="curved=1;endArrow=classic;html=1;rounded=0;exitX=0;exitY=0.5;exitDx=0;exitDy=0;fillColor=#fff2cc;strokeColor=#d6b656;strokeWidth=3;entryX=0;entryY=0.5;entryDx=0;entryDy=0;" parent="1" source="wKNCZyk0TjYHzA_RKTog-8" target="BCJE9C6mnE361nlagNKe-47" edge="1">
          <mxGeometry width="50" height="50" relative="1" as="geometry">
            <mxPoint x="570" y="737" as="sourcePoint" />
            <mxPoint x="150" y="777" as="targetPoint" />
            <Array as="points">
              <mxPoint x="10" y="767" />
            </Array>
          </mxGeometry>
        </mxCell>
        <mxCell id="wKNCZyk0TjYHzA_RKTog-19" value="" style="curved=1;endArrow=none;html=1;rounded=0;exitX=0.5;exitY=1;exitDx=0;exitDy=0;fillColor=#fff2cc;strokeColor=#d6b656;strokeWidth=3;entryX=0.5;entryY=1;entryDx=0;entryDy=0;" parent="1" source="XVee_mUp5hW_UbHp6SKK-8" target="XVee_mUp5hW_UbHp6SKK-9" edge="1">
          <mxGeometry width="50" height="50" relative="1" as="geometry">
            <mxPoint x="410" y="655" as="sourcePoint" />
            <mxPoint x="410" y="734" as="targetPoint" />
            <Array as="points">
              <mxPoint x="170" y="675" />
            </Array>
          </mxGeometry>
        </mxCell>
        <mxCell id="wKNCZyk0TjYHzA_RKTog-22" value="" style="curved=1;endArrow=none;html=1;rounded=0;exitX=0.5;exitY=1;exitDx=0;exitDy=0;fillColor=#fff2cc;strokeColor=#d6b656;strokeWidth=3;entryX=0.5;entryY=1;entryDx=0;entryDy=0;" parent="1" edge="1">
          <mxGeometry width="50" height="50" relative="1" as="geometry">
            <mxPoint x="657" y="645" as="sourcePoint" />
            <mxPoint x="737" y="645" as="targetPoint" />
            <Array as="points">
              <mxPoint x="697" y="675" />
            </Array>
          </mxGeometry>
        </mxCell>
        <mxCell id="wKNCZyk0TjYHzA_RKTog-23" value="" style="curved=1;endArrow=none;html=1;rounded=0;exitX=0.5;exitY=1;exitDx=0;exitDy=0;fillColor=#fff2cc;strokeColor=#d6b656;strokeWidth=3;entryX=0.5;entryY=1;entryDx=0;entryDy=0;" parent="1" edge="1">
          <mxGeometry width="50" height="50" relative="1" as="geometry">
            <mxPoint x="135" y="747" as="sourcePoint" />
            <mxPoint x="215" y="747" as="targetPoint" />
            <Array as="points">
              <mxPoint x="175" y="777" />
            </Array>
          </mxGeometry>
        </mxCell>
        <mxCell id="wKNCZyk0TjYHzA_RKTog-27" value="" style="curved=1;endArrow=classic;html=1;rounded=0;fillColor=#fff2cc;strokeColor=#d6b656;strokeWidth=3;" parent="1" edge="1">
          <mxGeometry width="50" height="50" relative="1" as="geometry">
            <mxPoint x="190" y="657" as="sourcePoint" />
            <mxPoint x="200" y="757" as="targetPoint" />
            <Array as="points">
              <mxPoint x="300" y="657" />
              <mxPoint x="360" y="687" />
              <mxPoint x="330" y="797" />
            </Array>
          </mxGeometry>
        </mxCell>
        <mxCell id="wKNCZyk0TjYHzA_RKTog-28" value="" style="curved=1;endArrow=classic;html=1;rounded=0;fillColor=#fff2cc;strokeColor=#d6b656;strokeWidth=3;entryX=1;entryY=0;entryDx=0;entryDy=0;" parent="1" target="BCJE9C6mnE361nlagNKe-51" edge="1">
          <mxGeometry width="50" height="50" relative="1" as="geometry">
            <mxPoint x="670" y="650" as="sourcePoint" />
            <mxPoint x="210" y="757" as="targetPoint" />
            <Array as="points">
              <mxPoint x="560" y="737" />
              <mxPoint x="430" y="787" />
              <mxPoint x="310" y="797" />
              <mxPoint x="240" y="787" />
            </Array>
          </mxGeometry>
        </mxCell>
        <mxCell id="B7WIvdRq_6RGvrY6iQgg-1" value="IsFeeWaived" style="rounded=0;whiteSpace=wrap;html=1;fontStyle=1;container=0;" parent="1" vertex="1">
          <mxGeometry x="330" y="605" width="80" height="40" as="geometry" />
        </mxCell>
        <mxCell id="Qs7Vb2dvLTwLjbJxDjWJ-1" value="" style="endArrow=none;html=1;rounded=0;strokeWidth=1;" edge="1" parent="1">
          <mxGeometry width="50" height="50" relative="1" as="geometry">
            <mxPoint x="500" y="636" as="sourcePoint" />
            <mxPoint x="560" y="636" as="targetPoint" />
          </mxGeometry>
        </mxCell>
      </root>
    </mxGraphModel>
  </diagram>
</mxfile>
